<?xml version="1.0" encoding="UTF-8" standalone="no"?><!DOCTYPE svg PUBLIC "-//W3C//DTD SVG 1.1//EN" "http://www.w3.org/Graphics/SVG/1.1/DTD/svg11.dtd"><svg width="756" height="236" viewBox="0 0 7566 2363" version="1.1" xmlns="http://www.w3.org/2000/svg" xmlns:xlink="http://www.w3.org/1999/xlink" xml:space="preserve" xmlns:serif="http://www.serif.com/" style="fill-rule:evenodd;clip-rule:evenodd;stroke-linecap:round;stroke-linejoin:round;stroke-miterlimit:1.5;"><rect id="Artboard6" x="0" y="0" width="7565.727" height="2362.205" style="fill:none;"/><g><g><g><ellipse cx="1490.544" cy="1215.578" rx="756.948" ry="442.435" style="fill:none;stroke:#0b3d91;stroke-width:41.67px;"/><circle cx="1490.544" cy="1215.578" r="442.435" style="fill:#0b3d91;"/><circle cx="1490.544" cy="773.143" r="68.951"/><g transform="matrix(1130.607407,0,0,1130.607407,2508.514875,1581.902688)"><path d="M0.408,0.013c-0.054,0 -0.105,-0.009 -0.151,-0.028c-0.046,-0.019 -0.086,-0.045 -0.121,-0.078c-0.034,-0.033 -0.061,-0.072 -0.08,-0.117c-0.019,-0.045 -0.029,-0.093 -0.029,-0.145c0,-0.052 0.009,-0.101 0.028,-0.145c0.019,-0.044 0.045,-0.083 0.079,-0.116c0.034,-0.033 0.074,-0.059 0.12,-0.077c0.046,-0.018 0.096,-0.027 0.151,-0.027c0.054,0 0.105,0.009 0.151,0.027c0.046,0.018 0.086,0.044 0.12,0.077c0.034,0.033 0.061,0.072 0.08,0.117c0.019,0.045 0.028,0.093 0.028,0.146c0,0.052 -0.009,0.1 -0.028,0.145c-0.019,0.045 -0.045,0.084 -0.079,0.117c-0.034,0.033 -0.074,0.059 -0.12,0.078c-0.046,0.018 -0.096,0.028 -0.149,0.028Zm-0.002,-0.16c0.04,0 0.074,-0.009 0.104,-0.026c0.029,-0.017 0.052,-0.042 0.068,-0.073c0.016,-0.031 0.024,-0.068 0.024,-0.11c0,-0.031 -0.005,-0.059 -0.014,-0.085c-0.009,-0.025 -0.022,-0.047 -0.04,-0.066c-0.017,-0.018 -0.038,-0.032 -0.062,-0.042c-0.024,-0.01 -0.051,-0.015 -0.081,-0.015c-0.04,0 -0.074,0.009 -0.104,0.025c-0.029,0.017 -0.052,0.041 -0.068,0.072c-0.016,0.031 -0.024,0.068 -0.024,0.109c0,0.032 0.005,0.06 0.014,0.086c0.009,0.026 0.022,0.048 0.04,0.066c0.017,0.018 0.038,0.032 0.062,0.042c0.024,0.01 0.051,0.015 0.081,0.015Z" style="fill:#0b3d91;fill-rule:nonzero;"/></g><g transform="matrix(1130.607407,0,0,1130.607407,3426.56809,1581.902688)"><path d="M0.205,-0.287l0,-0.127l0.135,0c0.029,0 0.052,-0.007 0.068,-0.022c0.016,-0.015 0.024,-0.034 0.023,-0.059c0,-0.024 -0.008,-0.043 -0.023,-0.058c-0.016,-0.015 -0.038,-0.023 -0.067,-0.023l-0.135,0l0,-0.133l0.16,0c0.048,0 0.09,0.009 0.127,0.027c0.036,0.018 0.065,0.043 0.085,0.074c0.021,0.032 0.031,0.068 0.031,0.11c0,0.042 -0.01,0.079 -0.031,0.11c-0.021,0.031 -0.05,0.056 -0.087,0.074c-0.037,0.018 -0.081,0.027 -0.132,0.027l-0.153,0Zm-0.141,0.287l0,-0.709l0.179,0l0,0.709l-0.179,-0Zm0.384,-0l-0.207,-0.304l0.162,-0.039l0.252,0.343l-0.207,-0Z" style="fill:#0b3d91;fill-rule:nonzero;"/></g><g transform="matrix(1130.607407,0,0,1130.607407,4160.332297,1581.902688)"><path d="M0.205,-0l0,-0.133l0.148,0c0.028,0 0.05,-0.008 0.066,-0.024c0.016,-0.016 0.025,-0.036 0.025,-0.061c0,-0.017 -0.004,-0.032 -0.011,-0.045c-0.007,-0.013 -0.018,-0.023 -0.031,-0.03c-0.013,-0.007 -0.03,-0.011 -0.048,-0.011l-0.148,0l0,-0.129l0.138,0c0.023,0 0.043,-0.006 0.058,-0.018c0.015,-0.012 0.023,-0.03 0.023,-0.055c0,-0.024 -0.008,-0.043 -0.023,-0.054c-0.015,-0.012 -0.034,-0.018 -0.058,-0.018l-0.138,0l0,-0.133l0.18,0c0.044,0 0.083,0.008 0.115,0.025c0.032,0.017 0.057,0.039 0.074,0.067c0.017,0.028 0.026,0.06 0.026,0.095c0,0.047 -0.016,0.086 -0.048,0.117c-0.032,0.031 -0.079,0.05 -0.141,0.058l0.001,-0.061c0.067,0.008 0.119,0.03 0.155,0.066c0.036,0.036 0.054,0.08 0.054,0.134c0,0.04 -0.01,0.076 -0.03,0.107c-0.02,0.031 -0.048,0.056 -0.084,0.074c-0.036,0.018 -0.079,0.027 -0.129,0.027l-0.173,-0Zm-0.141,-0l0,-0.709l0.176,0l0,0.709l-0.176,-0Z" style="fill:#0b3d91;fill-rule:nonzero;"/></g><g transform="matrix(1130.607407,0,0,1130.607407,4895.227111,1581.902688)"><rect x="0.063" y="-0.709" width="0.179" height="0.709" style="fill:#0b3d91;fill-rule:nonzero;"/></g><g transform="matrix(1130.607407,0,0,1130.607407,5240.06237,1581.902688)"><path d="M0.235,-0l0,-0.704l0.179,0l0,0.704l-0.179,-0Zm-0.217,-0.555l-0,-0.154l0.613,0l0,0.154l-0.613,0Z" style="fill:#0b3d91;fill-rule:nonzero;"/></g><g transform="matrix(1130.607407,0,0,1130.607407,5937.64714,1581.902688)"><path d="M0.408,0.013c-0.054,0 -0.105,-0.009 -0.151,-0.028c-0.046,-0.019 -0.086,-0.045 -0.121,-0.078c-0.034,-0.033 -0.061,-0.072 -0.08,-0.117c-0.019,-0.045 -0.029,-0.093 -0.029,-0.145c0,-0.052 0.009,-0.101 0.028,-0.145c0.019,-0.044 0.045,-0.083 0.079,-0.116c0.034,-0.033 0.074,-0.059 0.12,-0.077c0.046,-0.018 0.096,-0.027 0.151,-0.027c0.054,0 0.105,0.009 0.151,0.027c0.046,0.018 0.086,0.044 0.12,0.077c0.034,0.033 0.061,0.072 0.08,0.117c0.019,0.045 0.028,0.093 0.028,0.146c0,0.052 -0.009,0.1 -0.028,0.145c-0.019,0.045 -0.045,0.084 -0.079,0.117c-0.034,0.033 -0.074,0.059 -0.12,0.078c-0.046,0.018 -0.096,0.028 -0.149,0.028Zm-0.002,-0.16c0.04,0 0.074,-0.009 0.104,-0.026c0.029,-0.017 0.052,-0.042 0.068,-0.073c0.016,-0.031 0.024,-0.068 0.024,-0.11c0,-0.031 -0.005,-0.059 -0.014,-0.085c-0.009,-0.025 -0.022,-0.047 -0.04,-0.066c-0.017,-0.018 -0.038,-0.032 -0.062,-0.042c-0.024,-0.01 -0.051,-0.015 -0.081,-0.015c-0.04,0 -0.074,0.009 -0.104,0.025c-0.029,0.017 -0.052,0.041 -0.068,0.072c-0.016,0.031 -0.024,0.068 -0.024,0.109c0,0.032 0.005,0.06 0.014,0.086c0.009,0.026 0.022,0.048 0.04,0.066c0.017,0.018 0.038,0.032 0.062,0.042c0.024,0.01 0.051,0.015 0.081,0.015Z" style="fill:#0b3d91;fill-rule:nonzero;"/></g><g transform="matrix(1130.607407,0,0,1130.607407,6855.700355,1581.902688)"></g></g></g></g></svg>
